<svg width="701" height="189" viewBox="0 0 701 189" fill="none" xmlns="http://www.w3.org/2000/svg">
<g clip-path="url(#clip0_2_2)">
<rect width="701" height="189" fill="white"/>
<g clip-path="url(#clip1_2_2)">
<path d="M599.488 113.517L588.702 118.777C588.225 119.01 587.676 119.043 587.174 118.87C586.673 118.698 586.26 118.333 586.028 117.856L558.41 61.2322C557.48 59.3252 557.346 57.1268 558.037 55.1206C558.727 53.1145 560.187 51.4649 562.094 50.5348C564.001 49.6047 566.199 49.4703 568.205 50.161C570.212 50.8518 571.861 52.3112 572.791 54.2182L600.409 110.842C600.641 111.319 600.675 111.869 600.502 112.37C600.329 112.872 599.964 113.284 599.488 113.517ZM588.746 114.305L595.937 110.798L569.196 55.9717C568.731 55.0182 567.906 54.2885 566.903 53.9431C565.9 53.5977 564.801 53.665 563.847 54.13C562.894 54.5951 562.164 55.4199 561.819 56.4229C561.473 57.426 561.541 58.5252 562.006 59.4787L588.746 114.305Z" fill="#d82525"/>
<path d="M594.773 138.068C594.297 138.301 593.747 138.334 593.245 138.161C592.744 137.989 592.331 137.624 592.099 137.147L583.331 119.171C583.099 118.695 583.065 118.145 583.238 117.643C583.411 117.142 583.776 116.73 584.252 116.497L600.431 108.606C600.907 108.374 601.457 108.34 601.959 108.513C602.46 108.686 602.872 109.05 603.105 109.527L607.927 119.414C608.16 119.891 608.193 120.44 608.021 120.942C607.848 121.443 607.483 121.856 607.006 122.088C606.529 122.321 605.98 122.354 605.478 122.182C604.977 122.009 604.564 121.644 604.332 121.167L600.387 113.078L587.803 119.215L595.694 135.394C595.927 135.87 595.96 136.42 595.788 136.922C595.615 137.423 595.25 137.836 594.773 138.068Z" fill="#d82525"/>
<path d="M646.617 144.859L646.482 144.924C645.952 145.183 632.958 150.296 624.972 151.989C616.551 153.771 605.437 149.278 604.951 149.059C604.46 148.856 604.069 148.466 603.865 147.975C603.764 147.732 603.712 147.471 603.712 147.208C603.711 146.945 603.763 146.684 603.863 146.44C603.964 146.197 604.111 145.976 604.297 145.79C604.483 145.603 604.704 145.455 604.947 145.354C605.438 145.15 605.99 145.15 606.482 145.353C606.593 145.399 616.941 149.597 624.152 148.072C631.802 146.443 644.899 141.291 645.025 141.229C645.51 141.015 646.061 141.001 646.556 141.193C647.051 141.384 647.45 141.765 647.665 142.25C647.879 142.736 647.892 143.287 647.701 143.782C647.509 144.277 647.129 144.675 646.643 144.89L646.617 144.859Z" fill="#d82525"/>
<path d="M632.602 135.194C632.282 135.343 631.928 135.404 631.576 135.372C614.481 133.696 595.349 141.37 595.156 141.453C594.668 141.651 594.121 141.648 593.635 141.446C593.149 141.244 592.762 140.858 592.559 140.372C592.461 140.128 592.413 139.867 592.416 139.605C592.419 139.342 592.473 139.082 592.577 138.841C592.68 138.599 592.83 138.381 593.018 138.197C593.205 138.013 593.428 137.869 593.672 137.771C594.489 137.439 613.935 129.679 631.973 131.418C632.401 131.461 632.804 131.641 633.122 131.932C633.44 132.222 633.655 132.608 633.736 133.03C633.818 133.453 633.76 133.891 633.573 134.279C633.385 134.666 633.078 134.983 632.696 135.182L632.602 135.194Z" fill="#d82525"/>
<path d="M641.664 139.608C641.37 139.752 641.045 139.822 640.717 139.811C640.39 139.8 640.07 139.709 639.786 139.545C639.613 139.441 622.211 129.492 610.06 130.813C605.366 131.474 600.732 132.507 596.201 133.9C595.947 133.98 595.681 134.009 595.416 133.986C595.152 133.963 594.894 133.887 594.659 133.765C594.423 133.642 594.214 133.474 594.044 133.27C593.873 133.067 593.744 132.832 593.665 132.578C593.585 132.325 593.556 132.059 593.579 131.794C593.602 131.529 593.678 131.272 593.8 131.037C593.923 130.801 594.091 130.592 594.295 130.421C594.498 130.251 594.733 130.122 594.987 130.042C599.768 128.569 604.66 127.485 609.616 126.801C623.074 125.377 641.032 135.644 641.788 136.076C642.103 136.258 642.363 136.521 642.539 136.839C642.715 137.157 642.802 137.517 642.789 137.88C642.776 138.243 642.665 138.596 642.466 138.9C642.268 139.205 641.991 139.45 641.664 139.608Z" fill="#d82525"/>
<path d="M636.855 156.484C627.867 160.868 616.735 164.139 606.933 160.764C601.389 158.852 596.83 154.817 594.259 149.545C591.688 144.273 591.315 138.197 593.221 132.65C595.138 127.109 599.174 122.554 604.444 119.983C609.714 117.413 615.789 117.037 621.335 118.938C629.786 121.848 635.534 128.591 640.614 134.535C641.052 135.045 641.485 135.568 641.918 136.069L648.166 137.472C648.448 137.535 648.714 137.659 648.943 137.835C649.173 138.011 649.362 138.235 649.497 138.491C649.844 139.239 649.967 140.072 649.849 140.888C649.731 141.704 649.379 142.468 648.835 143.087C649.488 143.605 650.173 144.081 650.887 144.512C651.158 144.685 651.382 144.922 651.542 145.201C651.702 145.48 651.792 145.794 651.804 146.116C651.817 146.437 651.752 146.757 651.614 147.048C651.477 147.338 651.272 147.592 651.016 147.787C646.561 151.098 641.823 154.008 636.855 156.484ZM596.997 133.935C595.433 138.478 595.738 143.456 597.844 147.774C599.951 152.092 603.685 155.397 608.228 156.962C621.425 161.507 637.968 152.036 646.38 146.22C645.723 145.717 645.067 145.147 644.433 144.511C644.202 144.298 644.024 144.034 643.913 143.74C643.803 143.446 643.763 143.13 643.797 142.818C643.833 142.507 643.941 142.209 644.113 141.947C644.285 141.686 644.516 141.468 644.787 141.312C644.996 141.188 645.197 141.05 645.386 140.897L640.401 139.802C639.998 139.714 639.631 139.505 639.351 139.201L637.583 137.149C632.613 131.317 627.471 125.291 620.05 122.736C615.507 121.172 610.529 121.477 606.211 123.584C601.893 125.69 598.588 129.424 597.023 133.967L596.997 133.935Z" fill="#d82525"/>
<path d="M641.708 139.653L641.547 139.732C637.374 141.32 633.084 142.575 628.714 143.488C623.235 144.413 619.984 143.451 619.637 143.331C619.376 143.26 619.133 143.137 618.921 142.969C618.709 142.801 618.534 142.591 618.405 142.354C618.277 142.116 618.198 141.855 618.173 141.586C618.148 141.316 618.178 141.045 618.261 140.788C618.344 140.531 618.478 140.293 618.656 140.089C618.833 139.885 619.05 139.719 619.293 139.602C619.537 139.484 619.801 139.417 620.071 139.404C620.341 139.392 620.611 139.434 620.864 139.528C623.231 140.037 625.678 140.041 628.046 139.541C632.154 138.66 636.189 137.469 640.117 135.979C640.358 135.875 640.617 135.819 640.88 135.815C641.143 135.81 641.404 135.858 641.649 135.955C641.893 136.051 642.116 136.195 642.305 136.378C642.494 136.561 642.645 136.779 642.75 137.021C642.854 137.262 642.91 137.521 642.914 137.784C642.919 138.047 642.871 138.308 642.774 138.553C642.678 138.797 642.534 139.02 642.351 139.209C642.168 139.398 641.95 139.549 641.708 139.653Z" fill="#d82525"/>
</g>
<g clip-path="url(#clip2_2_2)">
<path d="M101.783 46.379L94.8882 44.1103L92.6074 37.2515C92.3222 36.3961 91.5194 35.8182 90.6122 35.8182C89.705 35.8182 88.9022 36.3961 88.6169 37.2515L86.3362 44.1103L79.4409 46.379C78.581 46.6627 78 47.4612 78 48.3637C78 49.2661 78.581 50.0646 79.4409 50.3484L86.3362 52.617L88.6169 59.4758C88.9022 60.3312 89.705 60.9091 90.6122 60.9091C91.5194 60.9091 92.3222 60.3312 92.6074 59.4758L94.8882 52.617L101.783 50.3484C102.643 50.0646 103.224 49.2661 103.224 48.3637C103.224 47.4612 102.643 46.6627 101.783 46.379ZM92.5644 48.9782C91.9342 49.1866 91.4396 49.6786 91.23 50.3055L90.6122 58.2264L89.9944 50.3055C89.7848 49.6786 89.2902 49.1866 88.66 48.9782L80.5387 48.3637L88.66 47.7491C89.2902 47.5407 89.7848 47.0487 89.9944 46.4218L90.6122 38.3365L91.23 46.4218C91.4396 47.0487 91.9342 47.5407 92.5644 47.7491L100.123 48.3637L92.5644 48.9782Z" fill="#d82525"/>
<path d="M127.896 27.5608L121.001 25.2921L118.72 18.4333C118.435 17.5779 117.632 17 116.725 17C115.818 17 115.015 17.5779 114.73 18.4333L112.449 25.2921L105.554 27.5608C104.694 27.8445 104.113 28.643 104.113 29.5455C104.113 30.4479 104.694 31.2464 105.554 31.5301L112.449 33.7988L114.73 40.6576C115.015 41.513 115.818 42.0909 116.725 42.0909C117.632 42.0909 118.435 41.513 118.72 40.6576L121.001 33.7988L127.896 31.5301C128.756 31.2464 129.337 30.4479 129.337 29.5455C129.337 28.643 128.756 27.8445 127.896 27.5608ZM118.677 30.16C118.047 30.3684 117.552 30.8604 117.343 31.4873L116.725 39.4082L116.107 31.4873C115.898 30.8604 115.403 30.3684 114.773 30.16L106.651 29.5455L114.773 28.9309C115.403 28.7225 115.898 28.2305 116.107 27.6036L116.725 19.5183L117.343 27.6036C117.552 28.2305 118.047 28.7225 118.677 28.9309L126.236 29.5455L118.677 30.16Z" fill="#d82525"/>
<path d="M179.559 44.2881L169.506 40.9781L166.179 30.9788C165.894 30.1234 165.091 29.5455 164.184 29.5455C163.276 29.5455 162.474 30.1234 162.188 30.9788L158.861 40.9781L148.808 44.2881C147.948 44.5718 147.367 45.3703 147.367 46.2727C147.367 47.1752 147.948 47.9737 148.808 48.2574L158.861 51.5673L162.188 61.5667C162.474 62.4221 163.276 63 164.184 63C165.091 63 165.894 62.4221 166.179 61.5667L169.506 51.5673L179.559 48.2574C180.419 47.9737 181 47.1752 181 46.2727C181 45.3703 180.419 44.5718 179.559 44.2881ZM167.183 47.9287C166.553 48.137 166.058 48.6292 165.848 49.2561L164.184 58.9497L162.519 49.2561C162.309 48.6292 161.815 48.137 161.184 47.9287L151.986 46.2727L161.184 44.6167C161.815 44.4085 162.309 43.9163 162.519 43.2894L164.184 33.6352L165.848 43.2894C166.058 43.9163 166.553 44.4085 167.183 44.6167L177.373 46.2727L167.183 47.9287Z" fill="#d82525"/>
<g filter="url(#filter0_d_2_2)">
<path d="M151.151 76.6971L138.752 72.6153L134.648 60.2822C134.363 59.4266 133.56 58.8487 132.653 58.8487C131.746 58.8487 130.943 59.4266 130.658 60.2822L126.554 72.6153L114.155 76.6971C113.295 76.9809 112.714 77.7794 112.714 78.6818C112.714 79.5843 113.295 80.3828 114.155 80.6665L126.554 84.7484L130.658 97.0814C130.943 97.937 131.746 98.5149 132.653 98.5149C133.56 98.5149 134.363 97.937 134.648 97.0814L138.752 84.7484L151.151 80.6665C152.011 80.3828 152.592 79.5843 152.592 78.6818C152.592 77.7794 152.011 76.9809 151.151 76.6971ZM136.428 81.1096C135.798 81.3178 135.303 81.81 135.094 82.4369L132.653 94.39L130.212 82.4369C130.003 81.81 129.508 81.3178 128.878 81.1096L116.806 78.6818L128.878 76.2541C129.508 76.0458 130.003 75.5536 130.212 74.9268L132.653 62.9277L135.094 74.9268C135.303 75.5536 135.798 76.0458 136.428 76.2541L149.085 78.6818L136.428 81.1096Z" fill="#d82525"/>
</g>
<path d="M127.896 111.46L121.001 109.192L118.72 102.333C118.435 101.477 117.632 100.899 116.725 100.899C115.818 100.899 115.015 101.477 114.73 102.333L112.449 109.192L105.554 111.46C104.694 111.744 104.113 112.542 104.113 113.445C104.113 114.347 104.694 115.146 105.554 115.43L112.449 117.698L114.73 124.557C115.015 125.412 115.818 125.99 116.725 125.99C117.632 125.99 118.435 125.412 118.72 124.557L121.001 117.698L127.896 115.43C128.756 115.146 129.337 114.347 129.337 113.445C129.337 112.542 128.756 111.744 127.896 111.46ZM118.677 114.059C118.047 114.268 117.552 114.76 117.343 115.387L116.725 123.308L116.107 115.387C115.898 114.76 115.403 114.268 114.773 114.059L106.651 113.445L114.773 112.83C115.403 112.622 115.898 112.13 116.107 111.503L116.725 103.418L117.343 111.503C117.552 112.13 118.047 112.622 118.677 112.83L126.236 113.445L118.677 114.059Z" fill="#d82525"/>
</g>
<g clip-path="url(#clip3_2_2)">
<path d="M103.383 90.5629L99.4024 87.6843C99.0552 87.4344 98.6229 87.3326 98.2006 87.4013C97.7784 87.47 97.4007 87.7036 97.1507 88.0508L94.1546 92.1992L82.7026 83.9024C82.2013 83.5396 81.5764 83.3906 80.9654 83.4883C80.3543 83.586 79.807 83.9222 79.4438 84.4232L77.0469 87.7212L76.9662 87.6636C76.699 87.4709 76.3941 87.3368 76.0715 87.2702C75.7489 87.2036 75.4158 87.2059 75.0942 87.2771C74.7725 87.3483 74.4696 87.4866 74.2051 87.6831C73.9407 87.8796 73.7208 88.1298 73.5599 88.4172L71.4165 92.2568C71.1379 92.7559 71.0521 93.3399 71.1752 93.898C71.2984 94.4562 71.6221 94.9498 72.0849 95.2852L72.4006 95.5157L69.4045 100.356L69.4414 73.0058C69.442 72.1784 69.1142 71.3845 68.53 70.7986C67.9458 70.2126 67.1529 69.8825 66.3255 69.8806H61.163C60.3358 69.8812 59.5426 70.2103 58.9579 70.7954C58.3732 71.3806 58.0447 72.174 58.0447 73.0012V82.0356H50.5706V73.0012C50.5725 72.5905 50.4932 72.1835 50.3376 71.8035C50.1819 71.4234 49.9528 71.0779 49.6633 70.7865C49.3739 70.4951 49.0298 70.2637 48.6508 70.1055C48.2719 69.9473 47.8654 69.8654 47.4547 69.8645H42.2899C41.4631 69.8657 40.6705 70.195 40.0863 70.7801C39.5021 71.3652 39.174 72.1582 39.174 72.985L39.1463 101.973L38.0654 100.895C36.5755 99.3991 34.6431 98.4236 32.5549 98.1131L23.3361 96.7302L21.3564 94.7344L22.1377 93.9531C22.2875 93.8033 22.4064 93.6254 22.4875 93.4297C22.5685 93.2339 22.6103 93.0242 22.6103 92.8123C22.6103 92.6004 22.5685 92.3906 22.4875 92.1949C22.4064 91.9991 22.2875 91.8213 22.1377 91.6715L19.2799 88.8136C18.9796 88.5128 18.6229 88.2742 18.2301 88.1117C17.8374 87.9491 17.4164 87.8658 16.9913 87.8664C16.566 87.8651 16.1446 87.9483 15.7517 88.1113C15.3588 88.2743 15.0022 88.5139 14.7028 88.8159L8.39024 95.1308C7.78353 95.7384 7.44275 96.5619 7.44275 97.4205C7.44275 98.2791 7.78353 99.1026 8.39024 99.7102L11.2458 102.57C11.3969 102.722 11.5767 102.841 11.7745 102.922C11.9723 103.003 12.1843 103.044 12.3981 103.043C12.6119 103.044 12.8239 103.003 13.0217 102.922C13.2195 102.841 13.3993 102.722 13.5504 102.57L14.2142 101.904L16.3852 104.073L17.632 113.001C17.632 113.034 17.6436 113.066 17.6482 113.098H14.1911C13.7597 113.096 13.3321 113.179 12.9329 113.342C12.5337 113.506 12.1708 113.747 11.8651 114.051C11.5594 114.355 11.3169 114.717 11.1517 115.116C10.9865 115.514 10.9017 115.942 10.9024 116.373V122.017C10.903 122.884 11.2475 123.715 11.8602 124.327C12.473 124.94 13.3038 125.285 14.1704 125.285H17.987L25.362 178.812C25.5305 180.008 26.1247 181.104 27.0356 181.898C27.9465 182.692 29.1132 183.132 30.3216 183.135H77.8581C79.0691 183.132 80.238 182.691 81.1497 181.894C82.0614 181.097 82.6546 179.997 82.8201 178.798L90.0338 125.285H93.8296C94.6962 125.285 95.5271 124.94 96.1398 124.327C96.7525 123.715 97.0971 122.884 97.0977 122.017V116.373C97.0971 115.507 96.7525 114.676 96.1398 114.063C95.5271 113.45 94.6962 113.106 93.8296 113.105H88.4781L91.5941 109.406L92.2578 109.885C92.7205 110.222 93.2906 110.376 93.8597 110.319C94.4287 110.262 94.957 109.998 95.3438 109.577L98.3238 106.35C98.5467 106.107 98.7158 105.82 98.8198 105.508C98.9239 105.195 98.9606 104.864 98.9275 104.536C98.8944 104.208 98.7923 103.891 98.6278 103.605C98.4634 103.32 98.2404 103.072 97.9734 102.879L97.4849 102.524L99.8748 99.2216C100.055 98.9735 100.184 98.6923 100.255 98.3942C100.326 98.0961 100.338 97.7869 100.29 97.4842C100.241 97.1816 100.134 96.8914 99.9733 96.6304C99.8127 96.3693 99.6023 96.1425 99.354 95.9628L96.7658 94.0891L98.8193 91.252L101.49 93.1856C101.837 93.4359 102.269 93.5384 102.691 93.4705C103.113 93.4027 103.491 93.1701 103.742 92.8238C103.992 92.4775 104.095 92.0458 104.028 91.6236C103.961 91.2015 103.729 90.8233 103.383 90.5721V90.5629ZM50.5568 85.2506H58.0332V87.2902C58.0359 87.45 58.0067 87.6088 57.9473 87.7572C57.888 87.9056 57.7997 88.0406 57.6875 88.1545C57.5762 88.2683 57.4432 88.3586 57.2963 88.42C57.1494 88.4814 56.9917 88.5126 56.8325 88.5117H51.7622C51.4423 88.5093 51.1364 88.38 50.9117 88.1523C50.687 87.9246 50.5619 87.6171 50.5637 87.2972L50.5568 85.2506ZM42.3982 73.0865H47.3418L47.3302 87.281C47.3278 87.8641 47.4403 88.442 47.6613 88.9816C47.8823 89.5213 48.2074 90.012 48.6181 90.426C49.0288 90.8399 49.5171 91.1688 50.055 91.394C50.5928 91.6192 51.1698 91.7362 51.7529 91.7383H56.8233C57.405 91.7377 57.9809 91.6225 58.518 91.3993C59.0552 91.1762 59.5432 90.8494 59.9541 90.4376C60.365 90.0259 60.6908 89.5372 60.9128 88.9996C61.1349 88.4619 61.2489 87.8858 61.2483 87.3041L61.2598 73.1072H66.2033L66.1665 113.105H50.2895L42.3683 105.191L42.3982 73.0865ZM13.0503 98.4887L12.3958 99.1456L10.6719 97.4217L17.0006 91.1045L18.7199 92.8215L16.7655 94.7759L13.0503 98.4887ZM17.3278 100.496L16.4728 99.6411L19.0771 97.0368L19.9321 97.8918L20.6581 98.6178L18.0469 101.211L17.3278 100.496ZM20.8125 112.561L19.6417 104.195L23.7902 100.047L32.087 101.3C33.4932 101.508 34.7947 102.165 35.7976 103.172L45.74 113.105H20.907C20.8655 112.925 20.8309 112.743 20.8125 112.561ZM79.6235 178.367C79.5646 178.794 79.3535 179.185 79.0291 179.468C78.7047 179.751 78.2888 179.908 77.8581 179.909H30.3147C29.885 179.908 29.47 179.752 29.1461 179.469C28.8221 179.187 28.6111 178.797 28.5517 178.371L21.2435 125.285H86.7773L79.6235 178.367ZM93.8711 116.371V122.015C93.8711 122.02 93.87 122.026 93.8679 122.031C93.8659 122.036 93.8628 122.04 93.859 122.044C93.8551 122.048 93.8505 122.051 93.8455 122.053C93.8405 122.055 93.8351 122.056 93.8296 122.056H14.1704C14.165 122.056 14.1596 122.055 14.1545 122.053C14.1495 122.051 14.1449 122.048 14.1411 122.044C14.1372 122.04 14.1342 122.036 14.1321 122.031C14.13 122.026 14.1289 122.02 14.1289 122.015V116.373C14.1289 116.368 14.13 116.362 14.1321 116.357C14.1342 116.352 14.1372 116.348 14.1411 116.344C14.1449 116.34 14.1495 116.337 14.1545 116.335C14.1596 116.333 14.165 116.332 14.1704 116.332H93.8296C93.8406 116.332 93.8512 116.336 93.859 116.344C93.8667 116.352 93.8711 116.362 93.8711 116.373V116.371ZM84.2606 113.103H69.4022V106.502L75.0211 97.4078L88.969 107.505L84.2606 113.103ZM93.507 106.804L74.6247 93.1349L75.8922 90.8648L95.2677 104.891L93.507 106.804ZM94.8713 100.621L91.3936 98.1015L79.665 89.6134L81.5318 87.0344L96.7427 98.0439L94.8713 100.621Z" fill="#d82525"/>
</g>
<path d="M516.981 162C516.852 162.001 516.724 161.962 516.605 161.885C516.486 161.809 516.378 161.696 516.287 161.554C516.103 161.269 516 160.883 516 160.48C516 160.078 516.103 159.692 516.287 159.407C517.806 157.034 519.736 155.389 521.844 154.67C523.952 153.952 526.149 154.19 528.172 155.356C528.728 151.834 529.929 148.635 531.631 146.144C533.333 143.653 535.465 141.977 537.768 141.316C540.071 140.654 542.449 141.037 544.616 142.417C546.782 143.798 548.644 146.117 549.979 149.097C551.785 147.545 553.817 146.729 555.882 146.727C557.488 146.719 559.078 147.208 560.559 148.164C562.04 149.121 563.383 150.526 564.508 152.297C565.683 148.994 567.47 146.312 569.64 144.597C571.809 142.881 574.261 142.212 576.679 142.674C579.097 143.136 581.369 144.709 583.204 147.19C585.038 149.671 586.35 152.945 586.97 156.591C587.034 156.983 586.995 157.399 586.863 157.747C586.731 158.096 586.515 158.35 586.263 158.455C586.01 158.554 585.741 158.495 585.516 158.29C585.291 158.085 585.126 157.752 585.059 157.361C584.505 154.144 583.309 151.279 581.642 149.176C579.974 147.073 577.919 145.839 575.771 145.65C573.623 145.461 571.491 146.328 569.68 148.125C567.869 149.923 566.471 152.56 565.686 155.66C565.623 155.913 565.518 156.135 565.38 156.304C565.243 156.472 565.079 156.581 564.905 156.618C564.731 156.655 564.554 156.62 564.393 156.515C564.231 156.411 564.09 156.241 563.985 156.024C562.419 152.826 560.124 150.673 557.568 150.003C555.012 149.333 552.387 150.197 550.228 152.419C550.116 152.537 549.99 152.62 549.858 152.662C549.725 152.704 549.588 152.704 549.456 152.662C549.324 152.613 549.201 152.523 549.093 152.397C548.985 152.272 548.895 152.114 548.827 151.933C547.76 149.076 546.141 146.809 544.199 145.45C542.256 144.092 540.086 143.71 537.996 144.358C535.905 145.006 533.999 146.652 532.544 149.065C531.09 151.477 530.16 154.535 529.887 157.807C529.867 158.05 529.808 158.283 529.717 158.484C529.626 158.685 529.504 158.849 529.363 158.961C529.224 159.072 529.069 159.129 528.912 159.129C528.755 159.129 528.6 159.072 528.46 158.961C527.156 157.904 525.705 157.355 524.232 157.361C521.778 157.362 519.424 158.87 517.688 161.554C517.596 161.699 517.486 161.814 517.364 161.891C517.243 161.967 517.112 162.004 516.981 162Z" fill="#d82525"/>
<path d="M671.906 185.189H612.837C612.433 185.189 612.046 185.029 611.76 184.743C611.475 184.457 611.314 184.07 611.314 183.666C611.314 183.262 611.475 182.874 611.76 182.588C612.046 182.303 612.433 182.142 612.837 182.142H669.367C668.216 180.405 666.653 178.98 664.817 177.995C662.981 177.009 660.929 176.494 658.845 176.495C657.69 176.486 656.54 176.651 655.433 176.983C655.185 177.056 654.922 177.064 654.67 177.007C654.417 176.95 654.184 176.83 653.991 176.658C653.797 176.489 653.65 176.274 653.564 176.032C653.479 175.789 653.458 175.529 653.503 175.277V174.972C653.495 171.478 652.268 168.096 650.033 165.409C647.799 162.723 644.697 160.9 641.263 160.255C637.829 159.61 634.277 160.183 631.22 161.876C628.163 163.569 625.793 166.275 624.517 169.528C624.419 169.782 624.255 170.005 624.042 170.174C623.829 170.343 623.574 170.452 623.305 170.489C623.035 170.527 622.761 170.491 622.509 170.386C622.258 170.282 622.04 170.111 621.877 169.894C620.491 168.042 618.691 166.54 616.62 165.51C614.55 164.48 612.266 163.95 609.953 163.962C606.984 163.966 604.086 164.873 601.645 166.562C601.318 166.763 600.927 166.833 600.55 166.758C600.173 166.682 599.839 166.468 599.614 166.156C599.406 165.833 599.331 165.442 599.402 165.064C599.474 164.686 599.688 164.35 600 164.125C603.466 161.79 607.638 160.736 611.797 161.144C615.956 161.551 619.844 163.396 622.791 166.359C624.676 162.96 627.607 160.26 631.149 158.66C634.691 157.06 638.655 156.645 642.452 157.478C646.248 158.311 649.675 160.347 652.222 163.282C654.769 166.218 656.301 169.897 656.591 173.773C657.363 173.65 658.144 173.589 658.927 173.591C662.019 173.586 665.043 174.498 667.618 176.212C670.192 177.926 672.2 180.364 673.389 183.219C673.486 183.448 673.526 183.697 673.505 183.945C673.484 184.193 673.402 184.432 673.267 184.641C673.102 184.836 672.892 184.989 672.655 185.084C672.418 185.18 672.161 185.216 671.906 185.189Z" fill="#d82525"/>
<path d="M612.837 185.189H489.094C488.884 185.188 488.677 185.144 488.485 185.06C488.293 184.976 488.12 184.854 487.977 184.702C487.835 184.545 487.727 184.362 487.657 184.164C487.587 183.965 487.558 183.754 487.57 183.544C487.901 179.373 489.786 175.478 492.852 172.63C495.918 169.782 499.941 168.19 504.125 168.167C506.096 168.17 508.05 168.527 509.894 169.223C510.716 165.858 512.49 162.801 515.004 160.417C517.518 158.033 520.665 156.424 524.069 155.781C527.474 155.138 530.991 155.489 534.201 156.793C537.411 158.096 540.178 160.296 542.17 163.13C544.84 161.662 547.838 160.893 550.884 160.895C553.255 160.886 555.603 161.348 557.793 162.255C559.983 163.161 561.971 164.494 563.641 166.177C565.527 162.777 568.46 160.076 572.004 158.477C575.548 156.878 579.513 156.465 583.311 157.3C587.108 158.135 590.534 160.174 593.08 163.113C595.626 166.051 597.155 169.733 597.441 173.611C598.22 173.488 599.008 173.427 599.797 173.428C602.886 173.427 605.906 174.341 608.476 176.055C611.046 177.768 613.052 180.205 614.239 183.056C614.332 183.291 614.367 183.544 614.343 183.795C614.318 184.045 614.234 184.287 614.097 184.498C613.961 184.71 613.775 184.883 613.555 185.004C613.335 185.125 613.088 185.188 612.837 185.189ZM490.841 182.142H610.298C609.152 180.405 607.592 178.98 605.76 177.995C603.927 177.009 601.878 176.494 599.797 176.495C598.635 176.488 597.478 176.652 596.364 176.983C596.12 177.06 595.862 177.076 595.61 177.03C595.359 176.984 595.122 176.877 594.922 176.719C594.733 176.547 594.589 176.331 594.504 176.09C594.419 175.849 594.395 175.59 594.434 175.337C594.445 175.236 594.445 175.134 594.434 175.033C594.431 171.537 593.207 168.152 590.974 165.462C588.741 162.771 585.64 160.945 582.204 160.297C578.769 159.65 575.215 160.222 572.156 161.914C569.097 163.607 566.725 166.314 565.448 169.569C565.35 169.825 565.186 170.05 564.971 170.222C564.757 170.393 564.501 170.504 564.23 170.544C563.962 170.576 563.69 170.539 563.441 170.436C563.192 170.333 562.974 170.167 562.808 169.955C560.502 166.893 557.109 164.835 553.329 164.203C549.549 163.572 545.671 164.417 542.495 166.563C542.323 166.683 542.127 166.765 541.92 166.803C541.713 166.842 541.501 166.836 541.297 166.786C541.093 166.737 540.902 166.646 540.734 166.521C540.567 166.395 540.426 166.236 540.322 166.055C538.753 163.34 536.373 161.185 533.516 159.893C530.658 158.602 527.468 158.239 524.393 158.855C521.319 159.472 518.515 161.037 516.377 163.331C514.239 165.624 512.874 168.531 512.473 171.641C512.442 171.885 512.354 172.119 512.217 172.323C512.079 172.528 511.896 172.698 511.681 172.819C511.462 172.934 511.218 172.995 510.97 172.995C510.723 172.995 510.479 172.934 510.259 172.819C508.379 171.832 506.289 171.309 504.166 171.295C501.038 171.303 498.008 172.385 495.582 174.359C493.157 176.334 491.483 179.081 490.841 182.142Z" fill="#d82525"/>
<path d="M689.998 131.408C690.275 130.928 690.404 130.377 690.367 129.824C690.331 129.271 690.131 128.741 689.793 128.302C689.456 127.863 688.995 127.534 688.471 127.356C687.946 127.178 687.38 127.161 686.845 127.305L673.332 130.926L659.819 134.546C659.458 134.636 659.119 134.797 658.821 135.02C658.523 135.242 658.272 135.522 658.083 135.842C657.895 136.162 657.772 136.517 657.722 136.886C657.672 137.254 657.695 137.629 657.792 137.988C657.888 138.347 658.055 138.683 658.282 138.977C658.51 139.271 658.794 139.517 659.117 139.7C659.441 139.883 659.798 140 660.167 140.044C660.536 140.087 660.91 140.057 661.268 139.955L688.294 132.713C688.65 132.618 688.984 132.454 689.276 132.23C689.569 132.006 689.814 131.727 689.998 131.408Z" fill="#d82525"/>
<path d="M670.44 119.857C670.716 119.378 670.845 118.827 670.809 118.275C670.773 117.723 670.574 117.194 670.237 116.754C669.901 116.315 669.441 115.986 668.918 115.807C668.394 115.629 667.829 115.609 667.294 115.752L651.156 120.072C650.438 120.264 649.826 120.733 649.454 121.376C649.082 122.019 648.981 122.784 649.173 123.502C649.364 124.22 649.833 124.832 650.477 125.204C651.12 125.576 651.885 125.677 652.602 125.485L668.743 121.16C669.459 120.967 670.069 120.499 670.44 119.857Z" fill="#d82525"/>
<path d="M678.756 150.88C679.033 150.4 679.162 149.848 679.125 149.296C679.089 148.743 678.889 148.213 678.551 147.774C678.214 147.335 677.753 147.005 677.229 146.828C676.704 146.65 676.138 146.632 675.603 146.776L659.475 151.09C659.115 151.18 658.775 151.34 658.477 151.563C658.18 151.785 657.929 152.065 657.74 152.385C657.552 152.706 657.429 153.06 657.378 153.429C657.328 153.797 657.352 154.172 657.448 154.531C657.545 154.89 657.711 155.227 657.939 155.521C658.167 155.814 658.45 156.06 658.774 156.243C659.098 156.426 659.454 156.543 659.824 156.587C660.193 156.631 660.567 156.6 660.925 156.498L677.052 152.185C677.408 152.09 677.742 151.926 678.034 151.702C678.327 151.478 678.572 151.198 678.756 150.88Z" fill="#d82525"/>
</g>
<defs>
<filter id="filter0_d_2_2" x="108.714" y="58.8487" width="47.8774" height="47.6662" filterUnits="userSpaceOnUse" color-interpolation-filters="sRGB">
<feFlood flood-opacity="0" result="BackgroundImageFix"/>
<feColorMatrix in="SourceAlpha" type="matrix" values="0 0 0 0 0 0 0 0 0 0 0 0 0 0 0 0 0 0 127 0" result="hardAlpha"/>
<feOffset dy="4"/>
<feGaussianBlur stdDeviation="2"/>
<feComposite in2="hardAlpha" operator="out"/>
<feColorMatrix type="matrix" values="0 0 0 0 0 0 0 0 0 0 0 0 0 0 0 0 0 0 0.25 0"/>
<feBlend mode="normal" in2="BackgroundImageFix" result="effect1_dropShadow_2_2"/>
<feBlend mode="normal" in="SourceGraphic" in2="effect1_dropShadow_2_2" result="shape"/>
</filter>
<clipPath id="clip0_2_2">
<rect width="701" height="189" fill="white"/>
</clipPath>
<clipPath id="clip1_2_2">
<rect width="128" height="128" fill="white" transform="translate(483 89.1115) rotate(-26)"/>
</clipPath>
<clipPath id="clip2_2_2">
<rect width="103" height="115" fill="white" transform="translate(78 17)"/>
</clipPath>
<clipPath id="clip3_2_2">
<rect width="145" height="145" fill="white" transform="translate(0 41)"/>
</clipPath>
</defs>
</svg>
